<svg version="1.1" xmlns="http://www.w3.org/2000/svg" style="display: block;" viewBox="0 0 2048 2048" width="512" height="512">
<path transform="translate(0,0)" fill="rgb(24,23,24)" d="M 999.011 9.389 C 1014.88 3.40459 1093.04 3.02712 1109.69 8.56659 C 1117.26 9.19145 1125.12 10.7441 1132.65 11.017 C 1199.81 24.9306 1255.16 40.2154 1314.59 75.6596 C 1326.61 82.8303 1339.02 90.0857 1350.15 98.5659 C 1360.6 106.523 1387.45 130.493 1396.18 134.655 C 1398.86 135.93 1400.7 135.485 1403.46 134.936 C 1410.29 128.184 1459.72 125.104 1470.62 125.122 C 1539.33 125.231 1619.91 148.821 1671.19 196.285 C 1727.81 244.737 1766.53 311.647 1772.36 386.688 C 1775.66 429.044 1770.11 469.329 1754.69 508.984 C 1745.18 533.448 1734.95 556.768 1731.55 583.144 C 1729.5 608.293 1732.26 634.146 1728.04 659.002 C 1726.97 664.203 1725.56 669.492 1723.55 674.416 C 1715.6 693.911 1700.38 711.055 1680.67 719.079 C 1659.67 727.627 1636.41 728.358 1615.48 719.18 C 1579.74 703.506 1570.76 668.801 1557.05 635.815 C 1548.76 615.877 1540.15 596.038 1532.31 575.918 C 1528.06 565.713 1523.65 555.578 1519.07 545.519 C 1519.13 573.991 1521.46 606.144 1517.28 634.226 C 1512.77 700.56 1476.9 779.39 1435.89 830.944 C 1426.25 842.897 1416.17 854.491 1405.68 865.701 C 1399.63 872.202 1392.63 878.596 1387.22 885.608 C 1393.09 896.414 1403.68 906.198 1411.9 915.348 C 1420.51 924.846 1428.81 934.624 1436.77 944.666 C 1478.62 997.928 1512.96 1056.69 1538.81 1119.3 C 1543.63 1131.07 1548.93 1143.14 1552.68 1155.3 C 1558.93 1171.1 1566.1 1189.24 1568.93 1205.98 C 1578.89 1240.61 1586.84 1277.04 1590.36 1312.93 C 1592.25 1320.18 1592.88 1328.32 1593.04 1335.81 C 1600.49 1384.66 1597.81 1436.41 1593.31 1485.43 C 1592.49 1494.39 1592.39 1506.38 1589.48 1514.73 C 1581.49 1575.39 1563.89 1634.62 1543.86 1692.29 C 1549.26 1692.15 1554.67 1691.88 1560.07 1692.23 C 1576.55 1691.86 1593.28 1691.39 1609.75 1692.28 C 1645.22 1696.08 1677.84 1709.94 1700.79 1738.14 C 1722.07 1764.29 1733.13 1797.77 1729.64 1831.47 C 1726.51 1861.62 1710.56 1892.08 1686.8 1911.04 C 1643.73 1945.41 1598.47 1939.64 1546.99 1939.73 C 1531.29 1959.87 1511.84 1971.32 1486.4 1974.57 C 1464.95 1977.31 1442.08 1975.88 1420.47 1975.84 C 1395.18 1975.79 1366.87 1978.24 1342.16 1972.73 C 1329.26 1969.93 1317.16 1964.25 1306.76 1956.13 C 1297.31 1948.82 1286.74 1937.7 1282.35 1926.44 C 1276.54 1917.51 1274.72 1906.31 1273.55 1895.92 C 1272.54 1891.67 1272.84 1886.94 1272.77 1882.58 C 1268.29 1882.62 1263.92 1882.22 1259.47 1881.82 L 1258.28 1881.79 C 1231.52 1880.71 1200.12 1870.57 1173.95 1873.52 C 1163.76 1874.67 1153.68 1878.52 1143.88 1881.45 C 1125.3 1887 1103.48 1892.83 1084.08 1893.06 C 1070.7 1891.34 1055.13 1893.26 1042.41 1889.44 L 1029.32 1889.16 C 1029.58 1889.3 1029.83 1889.46 1030.1 1889.57 C 1034.27 1891.26 1039.3 1889.28 1043.43 1891.42 L 1041.59 1891.58 C 1040.4 1891.68 1039.51 1891.82 1038.35 1892.16 C 1035.66 1892.96 1032.41 1892.91 1029.59 1893.11 C 1009.87 1894.81 963.762 1882.88 944.898 1875.94 C 933.171 1872.87 922.453 1873.34 910.494 1873.95 C 885.059 1877.22 858.515 1882.17 832.912 1882.63 C 832.217 1903.07 827.539 1926.14 813.497 1941.92 L 809.826 1939.4 C 786.936 1964.13 762.391 1971.04 729.381 1972.29 C 714.121 1972.87 698.772 1972.05 683.507 1971.9 C 657.692 1971.63 631.83 1972.25 606.46 1966.75 C 596.841 1964.66 583.725 1955.6 575.547 1949.96 C 589.296 1966.76 614.267 1970.71 634.456 1972.54 C 641.727 1973.19 650.183 1971.98 657.153 1973.81 C 620.692 1974.56 595.42 1971.6 567.115 1946.83 L 565.751 1947.67 C 559.889 1942.14 557.784 1939.94 549.219 1939.78 C 539.761 1935.12 498.011 1934.56 484.839 1933.21 L 486.75 1935.42 C 484.358 1936.94 481.598 1936.97 478.851 1937.28 C 462.021 1933.79 446.567 1928.89 431.95 1919.63 C 413.679 1908.06 387.088 1880.53 382.395 1859.11 C 373.159 1840.51 375.613 1816.11 376.516 1796.06 C 374.675 1795.9 372.839 1795.69 371.008 1795.44 C 324.594 1789.03 271.635 1760.01 236.204 1730.14 C 228.721 1723.83 220.695 1717.11 214.802 1709.29 L 213.866 1708.41 C 205.041 1700.01 196.938 1688.5 189.803 1678.55 C 151.669 1625.37 132.49 1565.14 131.095 1499.85 C 131.038 1480.32 130.701 1460.3 136.404 1441.43 C 141.807 1423.54 153.24 1405.2 170.097 1396.2 C 185.378 1385.9 205.553 1382.69 223.527 1386.17 C 244.099 1390.16 261.228 1402.14 272.717 1419.59 C 285.772 1439.43 290.706 1463.47 302.206 1484.27 C 337.572 1548.21 404.137 1594.17 475.05 1609.27 C 486.098 1611.62 497.505 1613.89 508.758 1614.91 C 517.667 1615.71 527.981 1615.13 536.607 1617.27 C 537.219 1613.64 535.841 1609.85 535.037 1606.28 C 530.422 1586.88 525.022 1567.42 521.81 1547.73 C 519.765 1542.04 518.958 1534.84 517.895 1528.8 C 513.295 1502.72 512.464 1476.28 508.438 1450.21 C 507.864 1435.95 507.161 1421.64 507.28 1407.36 C 507.377 1395.64 508.22 1383.96 508.1 1372.23 C 510.57 1359.02 510.856 1344.53 511.714 1331.08 C 513.374 1318.97 515.225 1306.86 516.334 1294.68 C 519.195 1287.43 519.803 1278.06 521.18 1270.36 C 524.252 1253.18 527.291 1235.56 532.698 1218.94 C 536.592 1199.73 543.497 1180.29 550.053 1161.85 C 577.259 1082.99 617.671 1009.33 669.564 944.012 C 680.054 930.96 690.697 917.611 702.639 905.847 C 706.181 899.405 714.456 892.66 719.221 886.727 C 693.831 854.591 658.569 825.487 640.317 788.2 C 628.795 775.882 606.499 719.368 601.187 701.814 C 596.615 693.283 596.112 678.989 595.605 669.416 C 596.419 667.708 597.236 665.993 598.155 664.338 C 602.362 656.765 610.573 655.025 618.25 652.844 C 609.675 632.248 607.918 604.438 607.797 582.14 C 602.915 581.852 597.562 579.237 593.926 576.017 C 586.42 569.368 586.048 559.213 585.606 549.932 L 584.561 549.485 L 582.468 552.477 C 571.334 579.116 560.523 605.889 550.037 632.79 C 542.235 652.323 535.211 675.11 522.776 692.156 C 522.474 692.608 522.19 693.072 521.869 693.511 C 509.412 710.56 491.929 720.737 471.243 724.519 C 450.71 728.272 427.988 723.155 410.877 711.233 C 393.984 699.492 382.406 681.56 378.655 661.333 C 372.662 641.749 377.219 616.734 376.067 596.236 C 374.856 574.69 368.02 554.033 360.993 533.803 C 355.126 525.105 345.509 496.606 342.414 485.784 C 329.622 455.004 329.368 401.022 334.031 368.375 C 341.239 317.906 365.752 272.189 397.516 233.041 C 404.743 224.133 411.983 214.653 421.231 207.739 C 427.3 200.732 435.991 194.6 443.316 188.865 C 487.14 154.559 538.368 134.892 593.301 127.525 C 601.804 124.626 631.875 123.646 640.728 125.75 C 663.401 125.753 686.523 129.9 708.339 135.879 C 748.38 101.745 807.294 58.3951 857.837 42.5463 C 871.717 36.4232 897.362 24.112 912.029 30.0843 C 919.163 32.9894 922.956 38.9233 926.766 45.2539 C 943.718 35.9311 969.856 33.0935 988.917 34.6868 C 988.812 33.1011 988.701 31.5394 988.765 29.9493 C 989.129 20.9366 992.602 15.4729 999.011 9.389 z"/>
<path transform="translate(0,0)" fill="rgb(254,198,121)" d="M 857.837 42.5463 C 871.717 36.4232 897.362 24.112 912.029 30.0843 C 919.163 32.9894 922.956 38.9233 926.766 45.2539 C 943.718 35.9311 969.856 33.0935 988.917 34.6868 C 993.433 40.5863 997.408 45.173 1003.93 48.991 L 1005.28 49.0727 C 1024.18 50.1146 1043.45 47.3323 1062.46 47.7155 C 1127.57 48.7331 1191.74 63.3936 1250.84 90.7504 L 1248.01 91.6083 C 1248.54 100.951 1276.51 133.476 1283.33 144.609 C 1292.74 159.953 1301.23 176.653 1308.71 193.009 C 1328.75 236.795 1340.47 285.604 1348.04 333.025 C 1355.64 380.605 1354.97 430.25 1354.94 478.306 C 1354.91 537.717 1354.92 596.376 1347.13 655.476 C 1344.79 673.722 1341.53 691.84 1337.38 709.763 C 1334.49 722.533 1326.27 743.453 1326.7 755.454 C 1321.54 754.84 1316.21 754.9 1311.01 754.713 C 1315.19 741.079 1316.09 726.55 1316.52 712.368 C 1316.82 702.693 1316.9 691.779 1309.57 684.41 C 1305.72 680.544 1300.43 678.621 1295.01 678.705 C 1268.68 679.111 1275.44 717.814 1271.73 734.798 C 1268.78 748.235 1262.27 760.63 1252.88 770.679 C 1236.53 787.925 1216.19 794.465 1192.95 794.965 C 1182.5 795.085 1172.06 795.101 1161.61 795.013 C 1135.47 795.023 1113.25 794.14 1093.42 774.818 C 1070.3 752.28 1074.25 720.868 1074.08 691.345 C 1098.82 688.806 1124.98 677.333 1144.75 662.454 C 1180.9 635.774 1204.56 595.466 1210.24 550.896 C 1212.25 536.171 1210.74 523.291 1201.26 511.191 C 1183.3 488.27 1138.83 480.912 1111.74 477.39 C 1062.7 471.017 953.798 471.179 913.98 502.483 C 903.396 510.803 898.043 522.2 896.621 535.48 C 893.017 569.132 911.225 609.786 932.325 635.093 C 956.28 663.824 993.75 687.861 1031.65 691.365 C 1030.35 717.183 1036.45 743.243 1020.73 766.032 C 1010.61 780.57 995.098 790.458 977.646 793.494 C 959.679 796.756 908.613 796.711 891.389 792.716 C 882.505 790.655 874.359 786.812 866.869 781.642 C 846.849 767.822 835.065 747.628 832.342 723.509 C 831.34 714.633 831.861 705.375 830.081 696.614 C 828.963 691.106 826.862 685.67 821.926 682.581 C 816.397 679.121 810.936 678.063 804.616 679.764 C 799.197 681.223 795.131 684.442 792.453 689.387 C 784.228 704.581 790.584 738.896 795.371 755.018 C 780.038 754.764 765.273 757.7 751.988 765.64 C 730.89 778.25 721.971 797.775 716.039 820.736 C 708.297 809.417 698.868 799.11 690.751 788.003 C 672.87 763.112 658.343 735.976 647.542 707.294 C 642.688 694.506 640.97 680.646 636.172 667.934 C 632.731 658.815 626.607 656.396 618.25 652.844 C 609.675 632.248 607.918 604.438 607.797 582.14 C 602.915 581.852 597.562 579.237 593.926 576.017 C 586.42 569.368 586.048 559.213 585.606 549.932 L 584.561 549.485 L 582.468 552.477 C 571.334 579.116 560.523 605.889 550.037 632.79 C 542.235 652.323 535.211 675.11 522.776 692.156 C 522.474 692.608 522.19 693.072 521.869 693.511 C 509.412 710.56 491.929 720.737 471.243 724.519 C 450.71 728.272 427.988 723.155 410.877 711.233 C 393.984 699.492 382.406 681.56 378.655 661.333 C 372.662 641.749 377.219 616.734 376.067 596.236 C 374.856 574.69 368.02 554.033 360.993 533.803 C 355.126 525.105 345.509 496.606 342.414 485.784 C 329.622 455.004 329.368 401.022 334.031 368.375 C 341.239 317.906 365.752 272.189 397.516 233.041 C 404.743 224.133 411.983 214.653 421.231 207.739 C 427.3 200.732 435.991 194.6 443.316 188.865 C 487.14 154.559 538.368 134.892 593.301 127.525 C 601.804 124.626 631.875 123.646 640.728 125.75 C 663.401 125.753 686.523 129.9 708.339 135.879 C 748.38 101.745 807.294 58.3951 857.837 42.5463 z"/>
<path transform="translate(0,0)" fill="rgb(223,142,61)" d="M 857.837 42.5463 C 871.717 36.4232 897.362 24.112 912.029 30.0843 C 919.163 32.9894 922.956 38.9233 926.766 45.2539 C 924.961 53.984 922.626 61.2468 914.877 66.5111 C 904.629 73.4724 887.123 76.7702 875.092 81.5897 C 852.68 90.4435 830.992 101.029 810.224 113.249 C 792.769 123.732 776.03 135.363 760.117 148.066 C 747.662 158.156 732.884 176.771 718.742 182.91 L 718.289 183.623 C 712.987 191.794 706.217 199.268 700.651 207.383 C 681.847 234.795 665.163 263.055 652.519 293.84 C 645.315 311.38 639.607 329.082 634.738 347.401 C 631.819 358.146 629.248 368.982 627.029 379.893 C 626.059 384.826 626.092 392.385 624.258 396.847 C 623.604 398.438 623.543 398.166 622.588 399.335 C 622.196 399.815 621.828 400.315 621.448 400.805 C 624.564 404.059 625.667 406.598 626.363 411.046 C 629.159 428.936 627.412 449.31 627.414 467.464 C 627.417 497.105 628.077 526.906 627.48 556.531 C 627.381 560.306 627.142 564.076 626.762 567.834 C 621.706 574.993 615.975 579.002 607.797 582.14 C 602.915 581.852 597.562 579.237 593.926 576.017 C 586.42 569.368 586.048 559.213 585.606 549.932 L 584.561 549.485 L 582.468 552.477 C 571.334 579.116 560.523 605.889 550.037 632.79 C 542.235 652.323 535.211 675.11 522.776 692.156 C 522.474 692.608 522.19 693.072 521.869 693.511 C 509.412 710.56 491.929 720.737 471.243 724.519 C 450.71 728.272 427.988 723.155 410.877 711.233 C 393.984 699.492 382.406 681.56 378.655 661.333 C 372.662 641.749 377.219 616.734 376.067 596.236 C 374.856 574.69 368.02 554.033 360.993 533.803 C 355.126 525.105 345.509 496.606 342.414 485.784 C 329.622 455.004 329.368 401.022 334.031 368.375 C 341.239 317.906 365.752 272.189 397.516 233.041 C 404.743 224.133 411.983 214.653 421.231 207.739 C 427.3 200.732 435.991 194.6 443.316 188.865 C 487.14 154.559 538.368 134.892 593.301 127.525 C 601.804 124.626 631.875 123.646 640.728 125.75 C 663.401 125.753 686.523 129.9 708.339 135.879 C 748.38 101.745 807.294 58.3951 857.837 42.5463 z"/>
<path transform="translate(0,0)" fill="rgb(24,23,24)" d="M 857.837 42.5463 C 871.717 36.4232 897.362 24.112 912.029 30.0843 C 919.163 32.9894 922.956 38.9233 926.766 45.2539 C 924.961 53.984 922.626 61.2468 914.877 66.5111 C 904.629 73.4724 887.123 76.7702 875.092 81.5897 C 852.68 90.4435 830.992 101.029 810.224 113.249 C 792.769 123.732 776.03 135.363 760.117 148.066 C 747.662 158.156 732.884 176.771 718.742 182.91 C 647.634 161.179 574.482 162.835 507.805 198.344 C 448.513 229.919 403.055 281.356 383.175 345.988 C 368.615 392.473 370.34 442.534 388.068 487.907 C 398.814 516.158 410.471 542.241 415.726 572.394 C 420.201 598.069 413.279 643.046 423.701 663.214 C 428.591 672.679 437.239 679.368 447.439 682.321 C 457.519 685.239 468.184 683.577 477.185 678.278 C 484.473 673.988 488.409 669.022 492.336 661.737 C 499.034 649.311 503.48 635.111 508.899 622.056 C 522.243 589.894 535.402 557.657 548.377 525.345 L 570.877 469.975 C 574.938 460.091 580.439 449.451 583.013 439.145 C 586.544 425.012 582.628 407.291 596.776 398.383 C 601.662 395.305 606.67 395.489 612.137 396.861 C 615.592 397.728 618.207 399.562 621.448 400.805 C 624.564 404.059 625.667 406.598 626.363 411.046 C 629.159 428.936 627.412 449.31 627.414 467.464 C 627.417 497.105 628.077 526.906 627.48 556.531 C 627.381 560.306 627.142 564.076 626.762 567.834 C 621.706 574.993 615.975 579.002 607.797 582.14 C 602.915 581.852 597.562 579.237 593.926 576.017 C 586.42 569.368 586.048 559.213 585.606 549.932 L 584.561 549.485 L 582.468 552.477 C 571.334 579.116 560.523 605.889 550.037 632.79 C 542.235 652.323 535.211 675.11 522.776 692.156 C 522.474 692.608 522.19 693.072 521.869 693.511 C 509.412 710.56 491.929 720.737 471.243 724.519 C 450.71 728.272 427.988 723.155 410.877 711.233 C 393.984 699.492 382.406 681.56 378.655 661.333 C 372.662 641.749 377.219 616.734 376.067 596.236 C 374.856 574.69 368.02 554.033 360.993 533.803 C 355.126 525.105 345.509 496.606 342.414 485.784 C 329.622 455.004 329.368 401.022 334.031 368.375 C 341.239 317.906 365.752 272.189 397.516 233.041 C 404.743 224.133 411.983 214.653 421.231 207.739 C 427.3 200.732 435.991 194.6 443.316 188.865 C 487.14 154.559 538.368 134.892 593.301 127.525 C 601.804 124.626 631.875 123.646 640.728 125.75 C 663.401 125.753 686.523 129.9 708.339 135.879 C 748.38 101.745 807.294 58.3951 857.837 42.5463 z"/>
<path transform="translate(0,0)" fill="rgb(24,23,24)" d="M 1236.66 351.215 C 1250.45 349.546 1264.44 351.005 1277.59 355.483 C 1298.3 362.572 1314.72 376.563 1324.36 396.3 C 1328.68 405.139 1332.96 417.965 1329.32 427.534 C 1327 433.639 1320.73 437.69 1314.84 439.894 C 1294.64 447.466 1290.59 419.444 1281.67 408.175 C 1276.33 401.438 1269.98 397.857 1262.3 394.473 C 1254.54 392.265 1245.81 391.913 1237.95 393.782 C 1216.08 398.989 1214.77 415.384 1204.82 431.22 C 1201.53 436.455 1196.28 439.664 1190.23 440.788 C 1185.99 441.576 1181.86 440.762 1178.32 438.262 C 1173.3 434.715 1169.88 428.463 1168.85 422.482 C 1166.69 410.02 1172.86 395.995 1179.75 385.798 C 1193.2 365.898 1213.59 355.703 1236.66 351.215 z"/>
<path transform="translate(0,0)" fill="rgb(24,23,24)" d="M 844.589 351.217 C 862.081 349.433 879.468 351.435 895.476 358.982 C 914.123 367.841 928.507 383.719 935.486 403.148 C 938.583 411.817 939.963 421.365 935.6 429.875 C 933.289 434.381 929.41 438.17 924.441 439.528 C 917.162 441.517 910.684 439.062 904.432 435.541 C 901.347 430.789 899.519 425.612 897.287 420.435 C 891.151 406.208 883.158 399.503 868.919 393.889 C 861.159 392.038 852.946 391.653 845.252 394.026 C 827.518 399.495 822.165 413.499 814.107 428.119 C 811.122 433.536 806.112 439.089 799.902 440.645 C 795.747 441.687 791.666 440.519 788.077 438.354 C 782.778 435.157 778.165 430.623 776.822 424.407 C 774.26 412.541 781.785 395.14 788.385 385.462 C 801.403 366.375 822.254 355.341 844.589 351.217 z"/>
<path transform="translate(0,0)" fill="rgb(207,114,19)" d="M 1384.64 183.346 C 1426.37 169.998 1468.18 165.167 1511.7 170.95 C 1577.55 178.681 1640.57 215.389 1681.54 267.227 C 1719.82 315.672 1737.33 377.318 1730.23 438.651 C 1725.08 480.039 1703.45 516.061 1693.62 556.164 C 1689.68 572.212 1688.32 588.457 1687.96 604.93 C 1687.59 621.703 1690.21 643.056 1684.67 659.043 C 1682.5 665.321 1677.58 670.946 1672.45 675.017 C 1664.13 681.617 1653.21 685.333 1642.57 683.827 C 1631.83 682.307 1622.75 675.867 1616.61 667.085 C 1607.78 654.467 1603.53 637.687 1597.76 623.463 C 1591.44 607.865 1584.31 592.552 1578.28 576.843 C 1566.03 545.927 1553.59 515.085 1540.96 484.319 C 1535.24 470.432 1524.92 450.247 1521.76 436.256 C 1519.63 426.841 1520.79 413.607 1515.84 405.362 C 1513.23 401.005 1507.94 397.323 1503.01 396.199 C 1495.22 394.425 1489.5 397.208 1483.22 401.457 C 1481.29 398.359 1470.48 347.796 1467.72 338.52 C 1454.15 293.005 1435.08 248.787 1407.21 210.094 C 1400.53 200.833 1391.72 193.274 1385.23 184.23 C 1385.02 183.942 1384.83 183.64 1384.64 183.346 z"/>
<path transform="translate(0,0)" fill="rgb(223,142,61)" d="M 1384.64 183.346 C 1426.37 169.998 1468.18 165.167 1511.7 170.95 C 1511.48 172.463 1510.59 175.076 1511.58 176.252 C 1515.31 180.644 1521.15 183.672 1525.37 187.705 C 1533.53 195.503 1541.2 205.197 1547.94 214.229 C 1594.39 276.552 1609.01 361.996 1605.78 438.357 C 1603.88 483.416 1597.25 532.125 1582.59 574.844 C 1580.75 576.53 1580.75 576.709 1578.28 576.843 C 1566.03 545.927 1553.59 515.085 1540.96 484.319 C 1535.24 470.432 1524.92 450.247 1521.76 436.256 C 1519.63 426.841 1520.79 413.607 1515.84 405.362 C 1513.23 401.005 1507.94 397.323 1503.01 396.199 C 1495.22 394.425 1489.5 397.208 1483.22 401.457 C 1481.29 398.359 1470.48 347.796 1467.72 338.52 C 1454.15 293.005 1435.08 248.787 1407.21 210.094 C 1400.53 200.833 1391.72 193.274 1385.23 184.23 C 1385.02 183.942 1384.83 183.64 1384.64 183.346 z"/>
<path transform="translate(0,0)" fill="rgb(253,174,76)" d="M 1250.84 90.7504 C 1288.2 105.925 1323.61 130.174 1354.33 156.074 C 1364.59 164.72 1373.6 175.8 1384.64 183.346 C 1384.83 183.64 1385.02 183.942 1385.23 184.23 C 1391.72 193.274 1400.53 200.833 1407.21 210.094 C 1435.08 248.787 1454.15 293.005 1467.72 338.52 C 1470.48 347.796 1481.29 398.359 1483.22 401.457 C 1480.08 405.411 1478.76 408.396 1477.98 413.39 C 1475.14 431.549 1476.97 452.006 1476.98 470.483 L 1477.04 561.002 C 1477.05 578.754 1477.54 596.67 1476.64 614.399 C 1475.53 634.225 1472.44 653.891 1467.42 673.103 C 1452.69 730.751 1426.25 774.788 1389.58 820.986 C 1385.51 799.531 1376.36 779.971 1357.77 767.378 C 1348.43 761.049 1337.76 757.426 1326.7 755.454 C 1326.27 743.453 1334.49 722.533 1337.38 709.763 C 1341.53 691.84 1344.79 673.722 1347.13 655.476 C 1354.92 596.376 1354.91 537.717 1354.94 478.306 C 1354.97 430.25 1355.64 380.605 1348.04 333.025 C 1340.47 285.604 1328.75 236.795 1308.71 193.009 C 1301.23 176.653 1292.74 159.953 1283.33 144.609 C 1276.51 133.476 1248.54 100.951 1248.01 91.6083 L 1250.84 90.7504 z"/>
<path transform="translate(0,0)" fill="rgb(254,198,121)" d="M 651.062 1933.04 C 634.445 1933.28 618.197 1934.35 603.61 1924.7 C 577.333 1907.33 570.565 1872.27 583.362 1844.53 C 590.846 1828.31 603.352 1815.08 609.485 1797.97 C 615.404 1781.47 615.96 1763.61 614.919 1746.29 C 612.481 1705.75 598.553 1669.45 586.441 1631.25 C 577.725 1604.29 570.549 1576.85 564.946 1549.07 C 529.907 1366.93 561.408 1194.31 656.78 1035.35 C 666.433 1019.26 677.376 1003.28 688.852 988.424 C 697.593 977.108 707.194 966.147 715.127 954.263 L 715.942 953.031 C 716.604 1004.19 716.772 1055.36 716.446 1106.53 C 716.387 1128.69 713.536 1165.64 717.865 1186.18 C 720.399 1198.21 726.745 1210.84 734.957 1219.99 C 750.177 1236.95 770.271 1244.09 792.552 1244.89 C 832.145 1246.32 872.259 1245.04 911.919 1245.02 L 1134.72 1244.99 L 1260.29 1244.97 C 1281.7 1244.96 1305.01 1246.77 1326.17 1243.81 C 1341.71 1241.64 1356.19 1234.71 1367.62 1223.96 C 1384.09 1208.37 1389.79 1187.17 1390.23 1165.14 L 1390.2 1038.02 C 1390.09 1010.21 1389.15 982.08 1390.4 954.294 C 1399.87 967.731 1410.66 980.156 1420.54 993.283 C 1433.3 1010.24 1445.24 1028.49 1456.04 1046.77 C 1541.93 1193.19 1572.98 1365.37 1543.65 1532.58 C 1538.36 1562.97 1531.19 1593.01 1522.2 1622.52 C 1509.35 1664.8 1493.08 1706.32 1490.93 1750.98 C 1490.08 1768.67 1492.28 1785.4 1498.93 1801.9 C 1505.08 1817.17 1515.96 1829.81 1522.73 1844.67 C 1535.72 1873.17 1528.69 1906.62 1502.34 1924.98 C 1497.12 1928.62 1491.82 1930.83 1485.57 1932.02 C 1472.13 1934.6 1456.81 1933.23 1443.14 1933.2 C 1425.38 1933.17 1407.53 1933.49 1389.78 1933.06 C 1379.48 1933.25 1368.68 1933.97 1358.46 1932.77 C 1342.79 1930.93 1324.32 1920.05 1318.36 1904.57 C 1311.83 1887.61 1314.75 1829.39 1314.74 1807.68 L 1314.79 1582.4 L 1314.9 1510.91 C 1314.91 1498.12 1315.67 1484.78 1314.62 1472.07 C 1314.25 1467.67 1312.7 1463.23 1309.83 1459.83 C 1306 1455.35 1300.42 1452.74 1294.53 1452.67 C 1288.66 1452.54 1282.78 1454.74 1278.67 1458.98 C 1275.7 1462.05 1273.6 1466.43 1273.11 1470.69 C 1271.37 1485.9 1272.86 1502.99 1272.86 1518.38 L 1272.88 1622.92 L 1272.87 1790.89 L 1273.11 1841.55 C 1246.95 1838.18 1220.71 1834.38 1194.49 1831.62 C 1186.43 1830.78 1178.1 1831.38 1170.21 1830.46 C 1156.67 1831.68 1144.07 1837.66 1131.12 1841.45 C 1103.03 1849.61 1073.82 1853.23 1044.58 1852.16 C 1026.32 1851.72 1008.17 1849.25 990.453 1844.79 C 976.12 1841.11 962.116 1834.69 947.662 1831.91 C 937.94 1830.05 928.069 1830.28 918.216 1830.31 C 890.079 1834.87 861.079 1838.25 832.725 1841.25 C 833.115 1824.12 832.37 1807.01 833.093 1789.87 C 831.991 1764.2 832.5 1738.35 832.427 1712.66 C 832.343 1682.97 831.841 1653.19 832.731 1623.51 L 832.637 1521.22 C 832.669 1504.8 834.38 1486.29 831.838 1470.16 C 831.239 1466.36 829.676 1462.22 827.173 1459.25 C 823.717 1455.16 817.988 1452.93 812.727 1452.65 C 806.873 1452.34 800.743 1454.41 796.542 1458.55 C 793.45 1461.61 792.065 1465.2 791.271 1469.41 C 789.228 1480.26 790.187 1492.36 790.208 1503.38 L 790.35 1557.59 L 790.242 1789.88 L 790.364 1856.89 C 790.389 1869.42 791.423 1882.95 789.481 1895.32 C 788.026 1904.6 783.728 1912.68 777.066 1919.29 C 770.745 1925.56 763.25 1929.57 754.572 1931.56 C 739.936 1934.91 723.015 1933.28 707.986 1933.24 C 689.251 1933.2 670.49 1933.33 651.758 1933.06 C 651.526 1933.06 651.294 1933.05 651.062 1933.04 z"/>
<path transform="translate(0,0)" fill="rgb(253,174,76)" d="M 1390.4 954.294 C 1399.87 967.731 1410.66 980.156 1420.54 993.283 C 1433.3 1010.24 1445.24 1028.49 1456.04 1046.77 C 1541.93 1193.19 1572.98 1365.37 1543.65 1532.58 C 1538.36 1562.97 1531.19 1593.01 1522.2 1622.52 C 1509.35 1664.8 1493.08 1706.32 1490.93 1750.98 C 1490.08 1768.67 1492.28 1785.4 1498.93 1801.9 C 1505.08 1817.17 1515.96 1829.81 1522.73 1844.67 C 1535.72 1873.17 1528.69 1906.62 1502.34 1924.98 C 1497.12 1928.62 1491.82 1930.83 1485.57 1932.02 C 1472.13 1934.6 1456.81 1933.23 1443.14 1933.2 C 1425.38 1933.17 1407.53 1933.49 1389.78 1933.06 C 1390.11 1932.77 1390.49 1932.53 1390.76 1932.18 C 1400.48 1919.36 1412.85 1909.26 1420.45 1894.56 C 1437.52 1861.54 1414.4 1830.64 1407.12 1798.61 C 1403.13 1781.06 1403.31 1762.21 1403.75 1744.29 C 1405.02 1692.64 1420.07 1646.24 1429.96 1596.11 C 1453.59 1476.33 1453.93 1348.59 1417.33 1231.32 C 1412.51 1216.33 1407.47 1201.42 1402.23 1186.57 C 1400.08 1180.33 1398.41 1172.78 1395.38 1166.97 C 1394.3 1164.9 1393.64 1164.57 1391.65 1163.53 L 1390.23 1165.14 L 1390.2 1038.02 C 1390.09 1010.21 1389.15 982.08 1390.4 954.294 z"/>
<path transform="translate(0,0)" fill="rgb(253,174,76)" d="M 832.731 1623.51 C 836.506 1623.36 838.452 1624.4 841.464 1626.44 C 850.742 1632.71 858.517 1641.49 867.167 1648.62 C 885.298 1663.41 904.678 1676.6 925.091 1688.04 C 1012.53 1736.94 1127.5 1730 1209.1 1671.97 C 1218.33 1665.4 1262.16 1627.28 1269.25 1625.32 C 1271.19 1624.78 1271.59 1624.43 1272.88 1622.92 L 1272.87 1790.89 L 1273.11 1841.55 C 1246.95 1838.18 1220.71 1834.38 1194.49 1831.62 C 1186.43 1830.78 1178.1 1831.38 1170.21 1830.46 C 1156.67 1831.68 1144.07 1837.66 1131.12 1841.45 C 1103.03 1849.61 1073.82 1853.23 1044.58 1852.16 C 1026.32 1851.72 1008.17 1849.25 990.453 1844.79 C 976.12 1841.11 962.116 1834.69 947.662 1831.91 C 937.94 1830.05 928.069 1830.28 918.216 1830.31 C 890.079 1834.87 861.079 1838.25 832.725 1841.25 C 833.115 1824.12 832.37 1807.01 833.093 1789.87 C 831.991 1764.2 832.5 1738.35 832.427 1712.66 C 832.343 1682.97 831.841 1653.19 832.731 1623.51 z"/>
<path transform="translate(0,0)" fill="rgb(207,114,19)" d="M 833.093 1789.87 C 860.586 1804.9 888.042 1821.18 918.216 1830.31 C 890.079 1834.87 861.079 1838.25 832.725 1841.25 C 833.115 1824.12 832.37 1807.01 833.093 1789.87 z"/>
<path transform="translate(0,0)" fill="rgb(207,114,19)" d="M 1272.87 1790.89 L 1273.11 1841.55 C 1246.95 1838.18 1220.71 1834.38 1194.49 1831.62 C 1186.43 1830.78 1178.1 1831.38 1170.21 1830.46 C 1176.24 1828.77 1182.65 1830.7 1188.75 1829.79 C 1200.72 1828 1266.6 1799.73 1272.87 1790.89 z"/>
<path transform="translate(0,0)" fill="rgb(253,174,76)" d="M 651.062 1933.04 C 651.241 1932.67 651.477 1932.33 651.599 1931.94 C 654.336 1923.18 669.093 1915.34 676.028 1908.8 C 690.373 1895.26 693.56 1870.55 697.976 1852.15 C 702.361 1833.87 711.099 1816.34 714.073 1797.84 C 717.266 1777.98 715.542 1756.13 715.517 1736.01 C 715.466 1694.99 714.76 1653.8 715.936 1612.8 C 716.444 1595.08 718.968 1580.08 732.71 1567.36 C 753.034 1548.55 766.618 1557.07 789.453 1557.58 C 789.752 1557.59 790.051 1557.59 790.35 1557.59 L 790.242 1789.88 L 790.364 1856.89 C 790.389 1869.42 791.423 1882.95 789.481 1895.32 C 788.026 1904.6 783.728 1912.68 777.066 1919.29 C 770.745 1925.56 763.25 1929.57 754.572 1931.56 C 739.936 1934.91 723.015 1933.28 707.986 1933.24 C 689.251 1933.2 670.49 1933.33 651.758 1933.06 C 651.526 1933.06 651.294 1933.05 651.062 1933.04 z"/>
<path transform="translate(0,0)" fill="rgb(240,79,90)" d="M 818.719 797.602 C 827.329 803.295 834.747 811.069 843.191 817.102 C 872.897 838.327 906.545 837.507 941.31 837.477 C 955.922 837.465 970.844 837.964 985.278 835.401 C 1011.42 830.758 1038.11 815.611 1053.37 793.547 C 1062.82 806.248 1076.17 817.419 1090.29 824.567 C 1100.94 829.898 1112.32 833.612 1124.07 835.588 C 1144.03 838.958 1193.11 838.981 1213.52 836.36 C 1222 835.27 1229.85 833.023 1237.98 830.408 C 1249.59 825.262 1259.9 819.814 1269.9 811.948 C 1275.93 807.206 1281.73 801.631 1288.1 797.407 C 1304.09 796.897 1324.61 794.099 1337.45 805.681 C 1347.12 814.399 1347.49 826.041 1347.79 838.186 C 1348.41 862.955 1347.87 887.866 1347.87 912.647 L 1347.86 1055.57 L 1347.87 1132.3 C 1347.88 1147.37 1348.76 1163.07 1346.95 1178.03 C 1346.28 1183.65 1342.63 1189.33 1338.67 1193.24 C 1334.12 1197.73 1327.62 1200.21 1321.43 1201.36 C 1311.32 1203.24 1300.08 1202.35 1289.8 1202.33 L 1240.19 1202.15 L 934.923 1202.23 L 839.915 1202.28 C 822.548 1202.29 804.345 1203.44 787.101 1201.53 C 778.72 1200.6 774.415 1199.23 768.241 1193.22 C 763.595 1188.69 760.493 1183.38 759.501 1176.92 C 757.339 1162.87 758.322 1147.72 758.326 1133.51 L 758.32 1067.08 L 758.365 843.435 C 758.474 829.697 757.311 816.607 768.28 806.353 C 781.317 794.166 802.298 796.991 818.719 797.602 z"/>
<path transform="translate(0,0)" fill="rgb(215,238,252)" d="M 818.719 797.602 C 827.329 803.295 834.747 811.069 843.191 817.102 C 872.897 838.327 906.545 837.507 941.31 837.477 C 955.922 837.465 970.844 837.964 985.278 835.401 C 1011.42 830.758 1038.11 815.611 1053.37 793.547 C 1062.82 806.248 1076.17 817.419 1090.29 824.567 C 1100.94 829.898 1112.32 833.612 1124.07 835.588 C 1144.03 838.958 1193.11 838.981 1213.52 836.36 C 1222 835.27 1229.85 833.023 1237.98 830.408 C 1240.26 840 1239.86 853.231 1239.8 863.239 C 1223.07 858.39 1203.79 859.993 1186.55 860.21 C 1118.66 859.482 1050.7 860.112 982.8 860.134 L 920.238 860.19 C 904.296 860.231 887.707 859.587 871.965 862.387 C 863.052 863.972 854.953 868.834 848.519 875.091 C 835.202 888.043 834.369 901.89 834.283 919.379 L 834.351 1043.37 C 834.28 1064.16 832.015 1096.18 835.483 1115.66 C 837.246 1125.57 841.415 1134.47 848.533 1141.64 C 855.514 1148.67 864.329 1153.04 874.087 1154.63 C 888.072 1156.9 903.127 1155.9 917.277 1155.88 L 987.724 1155.74 C 1060.73 1155.58 1133.85 1156.7 1206.84 1155.56 C 1209.71 1155.51 1212.56 1155.53 1215.42 1155.19 C 1223.62 1155.59 1231.58 1154.86 1239.64 1153.4 C 1240.45 1169.64 1239.43 1185.92 1240.19 1202.15 L 934.923 1202.23 L 839.915 1202.28 C 822.548 1202.29 804.345 1203.44 787.101 1201.53 C 778.72 1200.6 774.415 1199.23 768.241 1193.22 C 763.595 1188.69 760.493 1183.38 759.501 1176.92 C 757.339 1162.87 758.322 1147.72 758.326 1133.51 L 758.32 1067.08 L 758.365 843.435 C 758.474 829.697 757.311 816.607 768.28 806.353 C 781.317 794.166 802.298 796.991 818.719 797.602 z"/>
<path transform="translate(0,0)" fill="rgb(156,209,251)" d="M 1288.1 797.407 C 1304.09 796.897 1324.61 794.099 1337.45 805.681 C 1347.12 814.399 1347.49 826.041 1347.79 838.186 C 1348.41 862.955 1347.87 887.866 1347.87 912.647 L 1347.86 1055.57 L 1347.87 1132.3 C 1347.88 1147.37 1348.76 1163.07 1346.95 1178.03 C 1346.28 1183.65 1342.63 1189.33 1338.67 1193.24 C 1334.12 1197.73 1327.62 1200.21 1321.43 1201.36 C 1311.32 1203.24 1300.08 1202.35 1289.8 1202.33 L 1240.19 1202.15 C 1239.43 1185.92 1240.45 1169.64 1239.64 1153.4 C 1251.14 1149.53 1261.83 1140.63 1267.36 1129.82 C 1271.41 1121.89 1272.03 1111.29 1272.58 1102.54 C 1274.53 1071.14 1273.02 1038.85 1273.01 1007.37 C 1272.99 975.042 1274.44 941.888 1272.74 909.642 C 1272.42 903.701 1271.9 896.83 1269.91 891.192 C 1265.09 877.5 1252.41 868.928 1239.8 863.239 C 1239.86 853.231 1240.26 840 1237.98 830.408 C 1249.59 825.262 1259.9 819.814 1269.9 811.948 C 1275.93 807.206 1281.73 801.631 1288.1 797.407 z"/>
<path transform="translate(0,0)" fill="rgb(220,55,64)" d="M 1186.55 860.21 C 1203.79 859.993 1223.07 858.39 1239.8 863.239 C 1252.41 868.928 1265.09 877.5 1269.91 891.192 C 1271.9 896.83 1272.42 903.701 1272.74 909.642 C 1274.44 941.888 1272.99 975.042 1273.01 1007.37 C 1273.02 1038.85 1274.53 1071.14 1272.58 1102.54 C 1272.03 1111.29 1271.41 1121.89 1267.36 1129.82 C 1261.83 1140.63 1251.14 1149.53 1239.64 1153.4 C 1231.58 1154.86 1223.62 1155.59 1215.42 1155.19 C 1198.07 1153.56 1180.03 1154.97 1162.56 1154.61 C 1167.83 1143.23 1174.99 1132.67 1180.45 1121.33 C 1190.84 1099.77 1196.87 1073.09 1200.38 1049.5 C 1209.39 989.014 1203.9 911.464 1166.46 861.206 C 1173.15 861.164 1179.94 861.421 1186.55 860.21 z"/>
<path transform="translate(0,0)" fill="rgb(215,238,252)" d="M 998.498 942.008 C 999.676 941.868 1000.86 941.792 1002.05 941.779 C 1006.27 941.696 1009.69 943.03 1013.47 944.716 C 1026.72 950.613 1108.55 995.899 1115.7 1003.32 C 1117.81 1005.5 1119.79 1007.76 1119.66 1010.94 C 1114.54 1021.87 1087.88 1032.11 1076.49 1037.7 C 1059.96 1047.1 1028.9 1067 1012.48 1072.93 C 1006.4 1075.12 1002.69 1074.86 996.946 1072.07 C 994.551 1069.74 994.467 1066.77 994.193 1063.62 C 992.393 1042.91 993.71 1021.19 993.768 1000.39 C 993.814 983.878 992.011 965.067 994.9 948.907 C 995.427 945.958 996.592 944.262 998.498 942.008 z"/>
<path transform="translate(0,0)" fill="rgb(223,142,61)" d="M 176.356 1531.76 C 173.21 1509.34 168.692 1461.41 182.254 1442.63 C 188.191 1434.41 197.935 1428.1 208.119 1426.98 C 216.911 1426 224.192 1429.84 230.719 1435.39 C 247.539 1449.72 251.944 1480.69 262.729 1500.21 C 307.873 1581.93 386.119 1636.51 477.477 1653.5 C 502.058 1658.07 526.493 1659.25 551.435 1660.03 C 554.902 1670.67 558.229 1681.4 561.912 1691.97 C 519.706 1692.43 479.274 1688.89 440.144 1708.28 C 419.438 1721.16 405.617 1737.14 390.641 1756.02 C 378.817 1753.25 366.923 1751.19 355.218 1747.84 C 323.774 1738.83 293.738 1722.4 268.356 1701.86 C 218.017 1661.12 182.952 1596.19 176.356 1531.76 z"/>
<path transform="translate(0,0)" fill="rgb(207,114,19)" d="M 176.356 1531.76 C 190.019 1539.14 216.484 1576.95 229.621 1590.54 C 250.421 1612.05 273.266 1632.16 298.005 1649.04 C 322.655 1665.94 349.379 1679.6 377.517 1689.67 C 388.797 1693.8 400.312 1697.26 412.001 1700.02 C 419.321 1701.75 427.322 1702.8 434.414 1705.21 C 436.516 1705.93 438.364 1706.96 440.144 1708.28 C 419.438 1721.16 405.617 1737.14 390.641 1756.02 C 378.817 1753.25 366.923 1751.19 355.218 1747.84 C 323.774 1738.83 293.738 1722.4 268.356 1701.86 C 218.017 1661.12 182.952 1596.19 176.356 1531.76 z"/>
<path transform="translate(0,0)" fill="rgb(45,44,48)" d="M 936.719 535.275 C 988.034 516.066 1049.89 510.983 1104.07 519.72 C 1113.96 522.375 1124.55 522.902 1134.63 525.068 C 1145.97 527.508 1157.31 533.009 1168.84 533.668 C 1166.36 569.886 1153.55 598.696 1125.85 622.876 C 1105.68 640.495 1075.16 651.428 1048.29 649.658 C 1047.36 649.597 1046.43 649.476 1045.5 649.386 L 1040.46 648.925 C 1022.24 647.915 1005.3 641.076 990.522 630.568 C 955.882 605.932 943.477 575.896 936.719 535.275 z"/>
<path transform="translate(0,0)" fill="rgb(253,174,76)" d="M 1533.23 1734.82 C 1574.85 1735.26 1626.14 1726.88 1660.12 1756.49 C 1676.15 1770.47 1687.43 1792.11 1688.64 1813.46 C 1689.98 1837.34 1679.03 1857.64 1663.47 1874.85 C 1634 1900.81 1605.61 1897.82 1568.94 1897.97 C 1576.09 1867.41 1569.21 1838.54 1553.36 1812.25 C 1546.11 1800.24 1538.39 1788.77 1534.69 1775.05 C 1531.34 1762.6 1533.02 1747.62 1533.23 1734.82 z"/>
<path transform="translate(0,0)" fill="rgb(253,174,76)" d="M 499.594 1735.39 C 522.495 1732.81 550.564 1734.92 573.915 1735.09 C 574.183 1747.85 575.046 1761.52 572.054 1774.02 C 569.054 1786.56 562.498 1797.21 555.778 1808.04 C 537.075 1838.17 531.356 1862.41 536.484 1898.02 C 523.575 1898.01 510.647 1898.16 497.751 1897.48 C 479.621 1896.52 462.103 1890.28 447.965 1878.79 C 431.502 1865.42 420.287 1845.83 418.184 1824.62 C 416.058 1803.16 423.332 1782.87 436.972 1766.4 C 452.856 1747.21 475.214 1737.78 499.594 1735.39 z"/>
<path transform="translate(0,0)" fill="rgb(24,23,24)" fill-opacity="0.988235" d="M 565.751 1947.67 L 567.115 1946.83 C 595.42 1971.6 620.692 1974.56 657.153 1973.81 C 650.183 1971.98 641.727 1973.19 634.456 1972.54 C 614.267 1970.71 589.296 1966.76 575.547 1949.96 C 583.725 1955.6 596.841 1964.66 606.46 1966.75 C 631.83 1972.25 657.692 1971.63 683.507 1971.9 C 698.772 1972.05 714.121 1972.87 729.381 1972.29 C 762.391 1971.04 786.936 1964.13 809.826 1939.4 L 813.497 1941.92 C 803.43 1956.86 781.404 1969.68 763.905 1973.2 C 740.145 1977.98 636.644 1977.42 613.232 1972.95 C 600.973 1970.61 588.592 1965.29 578.278 1958.28 C 574.343 1955.61 568.24 1951.7 565.751 1947.67 z"/>
<path transform="translate(0,0)" fill="rgb(24,23,24)" fill-opacity="0.988235" d="M 484.839 1933.21 C 498.011 1934.56 539.761 1935.12 549.219 1939.78 C 525.728 1939.99 502.2 1940.21 478.851 1937.28 C 481.598 1936.97 484.358 1936.94 486.75 1935.42 L 484.839 1933.21 z"/>
<path transform="translate(0,0)" fill="rgb(24,23,24)" fill-opacity="0.980392" d="M 1029.32 1889.16 L 1042.41 1889.44 C 1055.13 1893.26 1070.7 1891.34 1084.08 1893.06 C 1070.59 1896.16 1043.91 1895.07 1029.59 1893.11 C 1032.41 1892.91 1035.66 1892.96 1038.35 1892.16 C 1039.51 1891.82 1040.4 1891.68 1041.59 1891.58 L 1043.43 1891.42 C 1039.3 1889.28 1034.27 1891.26 1030.1 1889.57 C 1029.83 1889.46 1029.58 1889.3 1029.32 1889.16 z"/>
</svg>